<?xml version="1.0" encoding="utf-8"?>
<!-- Generator: Adobe Illustrator 24.0.1, SVG Export Plug-In . SVG Version: 6.00 Build 0)  -->
<svg version="1.1" id="Layer_1" xmlns="http://www.w3.org/2000/svg" xmlns:xlink="http://www.w3.org/1999/xlink" x="0px" y="0px"
	 viewBox="0 0 250 75" style="enable-background:new 0 0 250 75;" xml:space="preserve">
<style type="text/css">
	.st0{fill:#FFFFFF;}
</style>
<g>
	<g>
		<path class="st0" d="M132.7,46.5c-1,8-7.5,12-19.7,11.9c-3.3,0-6.9-0.4-10.7-1.1l4.8-40.1c4.5-0.8,8.1-1.2,11.1-1.2
			c11,0,16.1,3.9,15.2,11.7c-0.2,1.9-1,3.7-2.4,5.3s-3.1,2.8-5,3.5v0.1c2.4,0.6,4.2,1.8,5.4,3.5C132.5,42,133,44.1,132.7,46.5z
			 M124.7,46c0.5-4-2.3-6-8.3-6h-4L111,51.6c1.2,0.2,2.4,0.3,3.5,0.3C120.8,51.8,124.2,49.9,124.7,46z M125.3,27.9
			c0.3-2.2-0.4-3.7-2-4.5c-1.1-0.6-3-0.9-5.5-0.9c-1.1,0-2.2,0.1-3.5,0.3L113,33.4h3.8C122.1,33.5,124.9,31.6,125.3,27.9z"/>
		<path class="st0" d="M164,58l-25.6-0.1l4.9-41.1h7.9L147,51.5l17.8,0.1L164,58z"/>
		<path class="st0" d="M194.9,58.2l-25.6-0.1l4.9-41.1l25.1,0.1l-0.8,6.5l-17.2-0.1L180,33.6l14.4,0.1l-0.7,6.2l-14.4-0.1l-1.4,11.8
			l17.8,0.1L194.9,58.2z"/>
		<path class="st0" d="M238.4,44.4c-0.6,4.9-2.7,8.5-6.3,11.1c-3.3,2.4-7.6,3.5-12.8,3.5s-9.1-1.2-12-3.6c-3-2.6-4.3-6.3-3.7-11.1
			l3.2-27.1h7.9l-3.1,26.6c-0.7,5.8,2.2,8.7,8.5,8.7c6.4,0,9.9-2.9,10.6-8.7l3.1-26.6h7.9L238.4,44.4z"/>
	</g>
	<path class="st0" d="M70.9,23.7c0,1.5,0,3-0.3,4.5c-0.4,2.7-1.3,5.3-2.5,7.8c3.2,2.5,4.9,6.6,4.2,11.3c-1.2,7.6-8.4,13.8-16,13.8
		H21.5l1.3-8.1h15.9c13.9,0,27-11.3,29.2-25.2c2.1-14-7.5-25.3-21.4-25.3H19.2l-1.8,11.4h27.3c5.6,0,9.9,3.3,11.3,8.1H16.2
		l-1.8,11.4h39.8c-2.9,4.8-8.3,8.1-13.8,8.1H24.5H13.1L11.4,53l-3,19.5h11.4h34.9c13.9,0,27-11.3,29.2-25.2
		C85.4,36.4,80,27.2,70.9,23.7z"/>
</g>
</svg>
